<svg xmlns="http://www.w3.org/2000/svg" viewBox="0 0 900 900" role="img" aria-label="After">
  <defs>
    <linearGradient id="bg" x1="0" y1="0" x2="1" y2="1">
      <stop offset="0" stop-color="#eef8ff"/>
      <stop offset="1" stop-color="#5591b7"/>
    </linearGradient>
    <radialGradient id="glow" cx="50%" cy="30%" r="65%">
      <stop offset="0" stop-color="#ffffff" stop-opacity=".7"/>
      <stop offset="1" stop-color="#ffffff" stop-opacity="0"/>
    </radialGradient>
  </defs>
  <rect width="900" height="900" rx="72" fill="url(#bg)"/>
  <circle cx="715" cy="145" r="190" fill="url(#glow)" opacity=".65"/>
  <circle cx="190" cy="720" r="260" fill="#ffffff" opacity=".12"/>
  <circle cx="455" cy="300" r="130" fill="#fff" opacity=".92"/>
  <path d="M391 260c-34 24-45 71-27 124 13 38 31 72 43 112 5 16 26 17 32 1l17-51c5-15 22-15 27 0l17 51c6 16 27 15 32-1 12-40 30-74 43-112 18-53 7-100-27-124-29-20-64-17-86 2-9 8-22 8-32 0-22-19-57-22-86-2z" fill="#286c8f" opacity=".88"/>
  <path d="M380 624h150" stroke="#fff" stroke-width="14" stroke-linecap="round" opacity=".8"/>
  <path d="M335 674h240" stroke="#fff" stroke-width="14" stroke-linecap="round" opacity=".55"/>
  <text x="450" y="748" text-anchor="middle" fill="#fff" font-family="Arial, Helvetica, sans-serif" font-size="64" font-weight="800">After</text>
  <text x="450" y="806" text-anchor="middle" fill="#fff" font-family="Arial, Helvetica, sans-serif" font-size="34" font-weight="600" opacity=".9">Implant case</text>
</svg>
