<svg xmlns="http://www.w3.org/2000/svg" viewBox="0 0 128 128" aria-hidden="true">
  <circle cx="64" cy="64" r="58" fill="#fff" stroke="#e5e7eb" stroke-width="8"/>
  <path fill="#4285F4" d="M109 65.3c0-3.2-.3-6.2-.8-9.2H65v17.4h24.7c-1.1 5.8-4.3 10.7-9.2 14v11.4h14.9C104 91 109 79.6 109 65.3z"/>
  <path fill="#34A853" d="M65 110c12.4 0 22.9-4.1 30.5-11.1L80.6 87.5c-4.1 2.8-9.4 4.4-15.6 4.4-12 0-22.1-8.1-25.7-18.9H24v11.8C31.5 99.7 47 110 65 110z"/>
  <path fill="#FBBC05" d="M39.3 73c-.9-2.8-1.4-5.8-1.4-8.9s.5-6.1 1.4-8.9V43.4H24A45.1 45.1 0 0 0 24 84.8L39.3 73z"/>
  <path fill="#EA4335" d="M65 36.2c6.8 0 12.9 2.3 17.7 6.9l13.2-13.2C87.9 22.4 77.4 18 65 18 47 18 31.5 28.3 24 43.4l15.3 11.8C42.9 44.3 53 36.2 65 36.2z"/>
</svg>
