<svg xmlns="http://www.w3.org/2000/svg" viewBox="0 0 220 220" role="img" aria-labelledby="title desc">
  <title id="title">Oral surgery logo</title>
  <desc id="desc">A circular blue dental emblem with a tooth and initials.</desc>
  <defs>
    <linearGradient id="g" x1="0" y1="0" x2="1" y2="1">
      <stop offset="0" stop-color="#78b7d7"/>
      <stop offset="1" stop-color="#1f5674"/>
    </linearGradient>
  </defs>
  <circle cx="110" cy="110" r="104" fill="#f5fbff" stroke="#dbeef7" stroke-width="6"/>
  <path d="M110 24c-47.5 0-86 38.5-86 86s38.5 86 86 86 86-38.5 86-86-38.5-86-86-86z" fill="url(#g)" opacity=".12"/>
  <path d="M79 70c-13 9-19 28-12 51 6 20 18 40 24 58 2 5 9 5 11 0l8-27c2-7 10-7 12 0l8 27c2 5 9 5 11 0 6-18 18-38 24-58 7-23 1-42-12-51-11-8-25-7-34 0-5 4-12 4-17 0-8-7-22-8-33 0z" fill="#fff" stroke="#1f5674" stroke-width="6" stroke-linejoin="round"/>
  <path d="M87 74c10 12 37 12 48 0" fill="none" stroke="#78b7d7" stroke-width="5" stroke-linecap="round"/>
  <text x="110" y="133" font-size="44" font-family="Arial, sans-serif" font-weight="700" text-anchor="middle" fill="#1f5674">OS</text>
</svg>
