<svg xmlns="http://www.w3.org/2000/svg" viewBox="0 0 128 128" aria-hidden="true">
  <circle cx="64" cy="64" r="58" fill="#fff" stroke="#e5e7eb" stroke-width="8"/>
  <path fill="#d32323" d="M66 18c7 0 13 8 11 15L69 56c-1 4-9 4-10 0L51 33c-2-7 4-15 15-15zM35 43c4-6 14-5 18 1l13 20c2 3-2 8-6 7L36 66c-7-1-11-14-1-23zm-4 48c-3-7 4-14 11-12l23 7c4 1 4 8 0 10l-22 11c-7 3-15-8-12-16zm57 20c-7 1-12-8-8-14l13-21c2-3 8-2 9 2l7 23c2 7-9 12-21 10zm27-54c2 7-6 14-13 11l-23-9c-4-1-4-8 0-9l23-7c7-2 12 5 13 14z"/>
</svg>
